<svg width="187" height="186" viewBox="0 0 187 186" fill="none" xmlns="http://www.w3.org/2000/svg">
<g filter="url(#filter0_d)">
<path d="M78.5864 173.783C79.2866 172.499 80.0647 171.293 80.7649 170.087C81.3096 169.192 81.8931 168.258 82.4378 167.325C83.3326 165.768 84.5386 164.99 86.2892 164.835C90.6464 164.446 95.198 163.862 98.9327 161.256C101.345 159.583 103.757 157.91 106.169 156.237L106.441 156.043C114.377 150.557 122.625 144.877 130.328 138.886C144.022 128.266 155.148 115.817 163.395 101.889C172.071 87.2229 176.195 72.4786 176 56.7617C175.689 34.1978 160.05 15.2908 137.953 10.817C136.863 10.5835 135.735 10.4279 134.607 10.2334C134.101 10.1556 133.634 10.0778 133.168 10H125.581C124.726 10.1556 123.87 10.3112 123.014 10.4668L122.897 10.5057C120.874 10.8559 118.812 11.2449 116.867 11.7506C109.631 13.6958 102.901 17.1971 96.2095 22.5268C96.0539 22.6435 95.8983 22.7603 95.7427 22.9159L95.626 22.9937C95.3536 23.2271 95.0424 23.4605 94.7701 23.6939C94.3811 24.0052 94.0309 24.1219 93.8364 24.1608L92.7082 24.5887L91.6578 23.8884C90.9965 23.4216 90.374 22.9159 89.7127 22.449L89.596 22.3712C88.1954 21.3208 86.7171 20.2315 85.2777 19.259C77.536 14.0459 69.2107 11.0115 60.6131 10.2723C60.1462 10.2334 59.7183 10.1167 59.4071 10.0389H59.3682H53.8828C52.8324 10.2334 51.782 10.389 50.7706 10.5446C48.4364 10.8948 46.2189 11.2449 44.157 11.9063C25.5224 17.8195 14.2404 30.7354 10.6225 50.3815C10.4668 51.1985 10.3501 52.0155 10.1945 52.8324L10.1556 52.9491C10.1167 53.2604 10.0389 53.5716 10 53.8828V62.8695C10.1167 63.7642 10.2334 64.659 10.3501 65.5149C10.6225 67.4989 10.8559 69.5219 11.206 71.506C12.9955 82.36 17.0415 92.9417 23.5772 103.835C24.1608 104.807 24.861 106.324 24.861 107.958C24.8221 115 26.5339 122.08 30.3075 130.172C31.0855 131.884 31.0077 133.44 30.113 135.152C24.7443 145.111 19.2979 155.265 14.007 165.068L13.9681 165.107L10 172.499V174.055C10.6614 175.3 11.6728 176 14.3572 176H14.3961C31.7858 175.922 50.3426 175.922 74.5404 176C76.6412 175.961 77.7305 175.378 78.5864 173.783ZM23.1493 79.9091L20.8151 88.0009L18.6754 79.8313C15.2908 66.8765 13.1123 52.988 19.648 39.0996C24.5109 28.907 32.8751 21.3208 43.2622 17.7417C53.6105 14.1626 65.0869 14.9018 75.513 19.8036C80.7649 22.2545 85.6278 25.6391 90.4129 30.0741C92.6304 32.1359 93.5252 32.1359 95.7816 30.0352C104.185 22.2156 112.938 17.625 122.508 16.03C143.905 12.4509 163.979 25.6391 169.231 46.6857C171.604 56.2559 171.137 66.4096 167.714 78.5864C163.707 92.8249 155.731 106.247 143.36 119.629C136.591 126.943 128.81 133.673 120.33 139.626L112.199 145.344L116.984 136.63C117.062 136.474 117.139 136.319 117.217 136.202C117.412 135.852 117.606 135.463 117.84 135.113C119.513 132.39 121.185 129.588 122.78 126.865L122.819 126.787C126.632 120.446 130.561 113.872 134.685 107.53C137.252 103.601 137.836 99.0494 136.319 95.0035C134.801 91.0743 131.495 88.1954 127.293 87.0673L124.337 86.2892L125.893 83.6438C128.266 79.6367 128.577 75.0462 126.71 71.1169C124.881 67.2266 121.263 64.5034 117.062 63.842L114.922 63.4919L115.116 61.3133C115.739 55.011 113.521 50.4593 108.581 47.775C103.601 45.0907 98.6215 45.7131 93.7586 49.6035L92.2025 50.8484L90.7242 49.4479C90.4907 49.2144 90.2573 48.981 90.0239 48.7476C89.5571 48.2808 89.1291 47.8528 88.6623 47.4638C85.7445 44.974 82.1655 43.9236 78.5475 44.4682C74.8516 45.0518 71.506 47.3082 69.4052 50.6928C65.7094 56.6449 61.9747 62.7139 58.3956 68.5882L58.1233 69.0162C56.4893 71.7005 54.8554 74.3848 53.2215 77.0302C52.988 77.4193 52.7546 77.7694 52.4823 78.1584C52.3656 78.3529 52.2489 78.5086 52.1322 78.6642L49.6813 82.36L48.0473 78.2362C45.6353 72.0506 41.4338 68.9773 35.5983 69.094C29.1793 69.2885 25.2112 72.712 23.1493 79.9091ZM71.9339 170.515C60.3797 170.554 48.7087 170.554 39.8388 170.554H21.9822C21.671 170.554 21.3986 170.515 21.2041 170.476C21.0874 170.476 21.0096 170.437 20.8929 170.437L17.6639 169.931L21.8266 162.15C23.655 158.766 25.4446 155.42 27.1952 152.075L29.2571 148.184C31.5913 143.827 34.0033 139.353 36.4153 134.918C37.1155 133.595 37.1933 132.545 36.6098 131.222C36.143 130.211 35.7539 129.161 35.4038 128.149C34.8592 126.749 34.3923 125.465 33.7699 124.259C31.0077 118.657 30.6187 112.782 30.2686 107.102C30.2297 106.402 30.1908 105.741 30.1519 105.041C29.9573 102.278 29.7628 99.5163 29.5683 96.7931V96.6764C29.2571 92.1247 28.9459 87.4174 28.5957 82.7879C28.2845 78.314 31.0855 74.8127 35.326 74.5015C37.2322 74.3459 39.0607 74.9684 40.4612 76.2133C42.0173 77.5749 42.951 79.5978 43.0677 81.8931C43.1844 83.955 43.3011 86.0558 43.4179 88.0787C43.5346 89.7127 43.6124 91.3855 43.6902 93.0194C43.7291 93.9531 44.0792 95.5871 45.7131 96.015C46.18 96.1317 47.6583 96.5207 48.9421 94.42C53.6494 86.756 58.3567 79.0921 63.064 71.4282L68.0825 63.2196C68.7049 62.2081 69.3274 61.1966 69.9109 60.224L69.9498 60.1462C71.2726 58.0066 72.5564 55.8669 73.918 53.7272C75.124 51.782 76.9135 50.4204 78.8976 49.9925C80.726 49.5646 82.5934 49.9147 84.1884 50.9651C87.7286 53.2215 88.5456 57.5008 86.1725 61.3911C84.3829 64.3089 82.5934 67.1877 80.8428 70.1055C77.3415 75.7853 73.7235 81.6986 70.2222 87.4952C69.5997 88.5067 69.483 89.6349 69.9498 90.5296C70.3389 91.3077 71.1169 91.7745 72.0895 91.8913C73.101 92.008 74.0347 91.6967 75.0462 90.0239C79.4422 82.7879 84.0328 75.2796 88.1176 68.7049L93.1362 60.5353C93.4863 59.9517 93.8364 59.4071 94.1865 58.8235L94.3033 58.629C94.9257 57.5786 95.5482 56.5671 96.2095 55.5168C98.5826 51.7431 102.745 50.576 106.324 52.6768C107.997 53.6883 109.203 55.2444 109.67 57.1118C110.176 59.0958 109.787 61.2355 108.659 63.1418C100.956 75.7853 93.3307 88.1955 87.5341 97.61C86.7171 98.9327 86.6393 99.633 86.7949 100.217C87.1062 101.423 87.7675 102.084 88.9735 102.278C90.1017 102.473 90.9576 102.123 91.6189 101.189C92.3581 100.139 93.0195 99.0105 93.6808 97.8823C93.9531 97.4544 94.1865 97.0265 94.4589 96.6375C96.1317 93.9531 97.7656 91.2299 99.4385 88.5456L99.8275 87.8842C102.862 82.9046 105.935 77.925 109.009 72.9454C110.876 69.872 113.872 68.5882 117.178 69.4052C120.368 70.1833 122.586 72.9065 122.586 76.0576C122.586 77.6527 122.041 79.4811 121.146 80.9594C118.54 85.2777 115.895 89.6349 113.327 93.8364L113.249 93.992C110.409 98.6215 107.491 103.407 104.652 108.114C104.224 108.853 103.951 109.903 103.99 110.72C104.029 111.771 105.002 112.51 105.896 112.666C107.18 112.938 108.192 112.51 108.892 111.343C110.798 108.308 112.743 105.079 114.494 102.278C115.233 101.072 115.972 99.8275 116.75 98.6215C116.945 98.3103 117.139 97.9602 117.334 97.6489C117.762 96.9098 118.229 96.1317 118.734 95.3925C120.952 92.2025 125.037 91.3466 128.421 93.3307C131.65 95.2369 132.856 99.244 131.261 102.667C130.989 103.212 130.717 103.718 130.405 104.185L130.289 104.34C127.488 108.931 124.687 113.56 121.886 118.151C115.467 128.694 108.853 139.548 102.278 150.402C99.0884 155.654 94.3811 158.61 88.2344 159.233C86.3281 159.427 84.4218 159.661 82.5934 159.894L82.2044 159.933C81.1151 160.05 80.4148 160.517 79.8702 161.45L79.2088 162.578C78.0028 164.562 76.7968 166.585 75.4741 168.608C74.6571 169.698 73.2177 170.515 71.9339 170.515Z" fill="#03FBF3"/>
</g>
<defs>
<filter id="filter0_d" x="0" y="0" width="186.007" height="186" filterUnits="userSpaceOnUse" color-interpolation-filters="sRGB">
<feFlood flood-opacity="0" result="BackgroundImageFix"/>
<feColorMatrix in="SourceAlpha" type="matrix" values="0 0 0 0 0 0 0 0 0 0 0 0 0 0 0 0 0 0 127 0"/>
<feOffset/>
<feGaussianBlur stdDeviation="5"/>
<feColorMatrix type="matrix" values="0 0 0 0 0.0117647 0 0 0 0 0.984314 0 0 0 0 0.952941 0 0 0 0.3 0"/>
<feBlend mode="normal" in2="BackgroundImageFix" result="effect1_dropShadow"/>
<feBlend mode="normal" in="SourceGraphic" in2="effect1_dropShadow" result="shape"/>
</filter>
</defs>
</svg>
