<svg width="43" height="38" viewBox="0 0 43 38" fill="none" xmlns="http://www.w3.org/2000/svg">
<g filter="url(#filter0_d)">
<path d="M38.6122 28.1731C38.5639 27.0126 38.0061 25.9297 37.0417 25.1237C35.1533 23.5456 33.5711 22.6346 32.0625 22.2568C29.9839 21.7361 28.0584 22.2095 26.3401 23.664C26.3375 23.6661 26.3349 23.6683 26.3324 23.6706L24.5042 25.2431C23.3617 24.685 21.1401 23.4594 18.7399 21.3792L18.5619 21.2251C16.1613 19.1446 14.7472 17.2188 14.1038 16.2298L15.9184 14.6453C15.921 14.6431 15.9236 14.6409 15.9261 14.6386C17.6042 13.1495 18.1505 11.4808 17.5498 9.67914C17.1138 8.37173 16.0627 7.00051 14.2417 5.36392C13.3118 4.5282 12.0624 4.04479 10.7234 4.00296C9.38358 3.96106 8.09794 4.36525 7.10085 5.14091L7.06204 5.17115C7.04406 5.18515 7.02648 5.19962 7.00931 5.21445C5.02439 6.93471 3.98389 9.34298 4.00019 12.179C4.02798 16.9967 7.08314 22.5062 12.1726 26.917C13.1323 27.7488 14.2231 28.5719 15.4145 29.3636C16.0071 29.7574 16.8558 29.6604 17.3102 29.1467C17.7647 28.6331 17.6526 27.8975 17.0599 27.5037C15.9623 26.7742 14.9614 26.0193 14.0849 25.2599C9.48777 21.2757 6.72873 16.3814 6.70446 12.1673C6.69195 9.98318 7.45005 8.16015 8.89707 6.89299L8.90742 6.88491C9.89024 6.12031 11.3782 6.16684 12.2951 6.99084C15.7958 10.1372 15.5424 11.6226 13.9955 12.9974L11.489 15.186C11.0959 15.5292 10.9864 16.0465 11.2134 16.4883C11.277 16.6122 12.8164 19.5602 16.6501 22.8828L16.8282 23.0368C20.6614 26.359 24.0631 27.6931 24.206 27.7483C24.7156 27.9451 25.3126 27.8501 25.7086 27.5095L28.234 25.3371C29.8204 23.9964 31.5344 23.7769 35.1646 26.8108C36.1154 27.6053 36.1691 28.895 35.287 29.7467L35.2774 29.7559C33.8273 30.9998 31.7462 31.6562 29.2535 31.6562C29.2329 31.6562 29.2123 31.6562 29.1917 31.6561C27.1992 31.6475 24.892 31.1741 22.5195 30.2872C21.834 30.0308 21.0381 30.3048 20.7424 30.8991C20.4466 31.4935 20.7627 32.183 21.4485 32.4394C24.1908 33.4645 26.7914 33.9895 29.1783 33.9999C29.2036 33.9999 29.2288 34 29.2541 34C32.4935 34 35.2447 33.0989 37.2143 31.392C37.2314 31.3771 37.248 31.3619 37.2642 31.3463L37.2993 31.3125C38.1942 30.4484 38.6605 29.3335 38.6122 28.1731Z" fill="#03FBF3"/>
</g>
<defs>
<filter id="filter0_d" x="0" y="0" width="42.6156" height="38" filterUnits="userSpaceOnUse" color-interpolation-filters="sRGB">
<feFlood flood-opacity="0" result="BackgroundImageFix"/>
<feColorMatrix in="SourceAlpha" type="matrix" values="0 0 0 0 0 0 0 0 0 0 0 0 0 0 0 0 0 0 127 0"/>
<feOffset/>
<feGaussianBlur stdDeviation="2"/>
<feColorMatrix type="matrix" values="0 0 0 0 0.0117647 0 0 0 0 0.984314 0 0 0 0 0.952941 0 0 0 0.4 0"/>
<feBlend mode="normal" in2="BackgroundImageFix" result="effect1_dropShadow"/>
<feBlend mode="normal" in="SourceGraphic" in2="effect1_dropShadow" result="shape"/>
</filter>
</defs>
</svg>
