<svg width="40" height="22" viewBox="0 0 40 22" fill="none" xmlns="http://www.w3.org/2000/svg">
<path d="M38.3333 12.0835H1.66667C0.746663 12.0835 0 11.5235 0 10.8335C0 10.1435 0.746663 9.5835 1.66667 9.5835H38.3333C39.2533 9.5835 40 10.1435 40 10.8335C40 11.5235 39.2533 12.0835 38.3333 12.0835Z" fill="#03FBF3"/>
<path d="M38.3333 2.5H1.66667C0.746663 2.5 0 1.94 0 1.25C0 0.559998 0.746663 0 1.66667 0H38.3333C39.2533 0 40 0.559998 40 1.25C40 1.94 39.2533 2.5 38.3333 2.5Z" fill="#03FBF3"/>
<path d="M38.3333 21.6665H1.66667C0.746663 21.6665 0 21.1065 0 20.4165C0 19.7265 0.746663 19.1665 1.66667 19.1665H38.3333C39.2533 19.1665 40 19.7265 40 20.4165C40 21.1065 39.2533 21.6665 38.3333 21.6665Z" fill="#03FBF3"/>
</svg>
