<svg width="30" height="30" viewBox="0 0 30 30" fill="none" xmlns="http://www.w3.org/2000/svg">
<path d="M29.6438 27.9237L16.72 14.9999L29.6437 2.07618C30.1186 1.60128 30.1186 0.831181 29.6437 0.35622C29.1688 -0.11874 28.3987 -0.11874 27.9237 0.35622L15 13.2799L2.07618 0.35622C1.60128 -0.11874 0.83118 -0.11874 0.35622 0.35622C-0.11874 0.831122 -0.11874 1.60122 0.35622 2.07618L13.28 14.9999L0.35622 27.9237C-0.11874 28.3987 -0.11874 29.1687 0.35622 29.6437C0.831121 30.1186 1.60122 30.1187 2.07618 29.6437L15 16.7199L27.9238 29.6437C28.3987 30.1186 29.1688 30.1187 29.6438 29.6437C30.1187 29.1687 30.1187 28.3987 29.6438 27.9237Z" fill="#03FBF3"/>
</svg>
