<svg width="36" height="35" viewBox="0 0 36 35" fill="none" xmlns="http://www.w3.org/2000/svg">
<g filter="url(#filter0_d)">
<path d="M31.6898 25.7387C31.6512 24.7358 31.2049 23.7999 30.4334 23.1033C28.9227 21.7395 27.6569 20.9521 26.4501 20.6256C24.7871 20.1756 23.2468 20.5848 21.8721 21.8418C21.87 21.8436 21.868 21.8456 21.8659 21.8475L20.4034 23.2066C19.4894 22.7242 17.7121 21.665 15.7919 19.8672L15.6495 19.734C13.729 17.9359 12.5978 16.2716 12.0831 15.4168L13.5347 14.0474C13.5368 14.0455 13.5389 14.0436 13.5409 14.0416C14.8834 12.7546 15.3204 11.3125 14.8399 9.75538C14.4911 8.62545 13.6502 7.44038 12.1934 6.02596C11.4495 5.30368 10.4499 4.8859 9.37871 4.84974C8.30687 4.81354 7.27836 5.16285 6.48068 5.83322L6.44964 5.85935C6.43525 5.87145 6.42119 5.88396 6.40745 5.89677C4.81951 7.38351 3.98712 9.46486 4.00015 11.9159C4.02238 16.0796 6.46651 20.8412 10.5381 24.6532C11.3059 25.3721 12.1785 26.0835 13.1316 26.7677C13.6057 27.108 14.2847 27.0241 14.6482 26.5802C15.0118 26.1363 14.9221 25.5006 14.448 25.1602C13.5699 24.5298 12.7691 23.8774 12.0679 23.221C8.39022 19.7777 6.18299 15.5478 6.16357 11.9058C6.15357 10.0182 6.76004 8.44259 7.91766 7.34746L7.92594 7.34047C8.7122 6.67967 9.9026 6.71987 10.6361 7.43202C13.4367 10.1513 13.2339 11.4351 11.9964 12.6232L9.99119 14.5147C9.67673 14.8113 9.58917 15.2584 9.77074 15.6402C9.82163 15.7472 11.0531 18.2951 14.1201 21.1666L14.2625 21.2998C17.3292 24.171 20.0505 25.324 20.1648 25.3716C20.5725 25.5417 21.0501 25.4597 21.3669 25.1653L23.3872 23.2878C24.6564 22.1291 26.0275 21.9393 28.9317 24.5614C29.6923 25.2481 29.7353 26.3627 29.0297 27.0987L29.022 27.1067C27.8619 28.1817 26.197 28.7491 24.2028 28.7491C24.1864 28.7491 24.1699 28.7491 24.1534 28.749C22.5594 28.7415 20.7136 28.3324 18.8156 27.5659C18.2672 27.3443 17.6305 27.5811 17.394 28.0948C17.1573 28.6084 17.4102 29.2043 17.9588 29.4259C20.1527 30.3119 22.2332 30.7656 24.1426 30.7746C24.1629 30.7746 24.1831 30.7747 24.2033 30.7747C26.7949 30.7747 28.9958 29.9959 30.5715 28.5207C30.5852 28.5078 30.5985 28.4947 30.6114 28.4812L30.6395 28.452C31.3554 27.7052 31.7284 26.7416 31.6898 25.7387Z" fill="#03FBF3"/>
</g>
<defs>
<filter id="filter0_d" x="0" y="0.847187" width="35.6925" height="33.9275" filterUnits="userSpaceOnUse" color-interpolation-filters="sRGB">
<feFlood flood-opacity="0" result="BackgroundImageFix"/>
<feColorMatrix in="SourceAlpha" type="matrix" values="0 0 0 0 0 0 0 0 0 0 0 0 0 0 0 0 0 0 127 0"/>
<feOffset/>
<feGaussianBlur stdDeviation="2"/>
<feColorMatrix type="matrix" values="0 0 0 0 0.0117647 0 0 0 0 0.984314 0 0 0 0 0.952941 0 0 0 0.4 0"/>
<feBlend mode="normal" in2="BackgroundImageFix" result="effect1_dropShadow"/>
<feBlend mode="normal" in="SourceGraphic" in2="effect1_dropShadow" result="shape"/>
</filter>
</defs>
</svg>
